<svg id="SvgjsSvg1577" width="288" height="288" xmlns="http://www.w3.org/2000/svg" version="1.1" xmlns:xlink="http://www.w3.org/1999/xlink" xmlns:svgjs="http://svgjs.com/svgjs"><defs id="SvgjsDefs1578"></defs><g id="SvgjsG1579"><svg xmlns="http://www.w3.org/2000/svg" data-name="Layer 3" viewBox="0 0 64 64" width="288" height="288"><path fill="#658ea3" d="M51,28a4,4,0,0,1,4,4h0a4,4,0,0,1-4,4H45v9l6.274,9.858a4.652,4.652,0,0,1,.726,2.5h0A4.646,4.646,0,0,1,47.353,62h0a5.681,5.681,0,0,1-4.017-1.664L39,56l-.172.172A9.656,9.656,0,0,1,32,59h0a9.656,9.656,0,0,1-6.828-2.828L25,56l-4.336,4.336A5.681,5.681,0,0,1,16.647,62h0A4.646,4.646,0,0,1,12,57.353h0a4.652,4.652,0,0,1,.726-2.5L19,45V36H13a4,4,0,0,1-4-4H9a4,4,0,0,1,4-4Z" class="colora37765 svgShape"></path><path fill="#6f95a8" d="M47.353,62a4.647,4.647,0,0,0,3.92-7.142L45,45V36h6a4,4,0,0,0,0-8H13.555A3.955,3.955,0,0,0,13,30a4,4,0,0,0,4,4h6v9l-6.273,9.858A4.647,4.647,0,0,0,20.647,60a.559.559,0,0,1,.255.1L25,56l.172.172a9.657,9.657,0,0,0,13.656,0L39,56l4.336,4.336A5.681,5.681,0,0,0,47.353,62Z" class="colora87e6f svgShape"></path><circle cx="19" cy="9" r="7" fill="#587e91" class="color916658 svgShape"></circle><circle cx="20" cy="10" r="4" fill="#77a7bf" class="colorbf9377 svgShape"></circle><circle cx="45" cy="9" r="7" fill="#587e91" class="color916658 svgShape"></circle><circle cx="44" cy="10" r="4" fill="#77a7bf" class="colorbf9377 svgShape"></circle><circle cx="32" cy="18" r="14" fill="#658ea3" class="colora37765 svgShape"></circle><path fill="#6f95a8" d="M35,7A13.982,13.982,0,0,0,23.725,29.275a13.982,13.982,0,0,0,19.55-19.55A13.923,13.923,0,0,0,35,7Z" class="colora87e6f svgShape"></path><rect width="14" height="18" x="25" y="36" fill="#77a7bf" rx="7" class="colorbf9377 svgShape"></rect><path fill="#587e91" d="M32,32a13.967,13.967,0,0,0,10.923-5.255,10.994,10.994,0,0,0-21.846,0A13.967,13.967,0,0,0,32,32Z" class="color916658 svgShape"></path><path fill="#8ab1c4" d="M34,38a7,7,0,0,0-7,7v4a6.963,6.963,0,0,0,1.154,3.846A7,7,0,0,0,39,47V43a6.963,6.963,0,0,0-1.154-3.846A6.963,6.963,0,0,0,34,38Z" class="colorc49e8a svgShape"></path><path fill="#608293" d="M42.923,26.745a10.988,10.988,0,0,0-4.692-7.8,9.95,9.95,0,0,0-14.1,10.6,13.938,13.938,0,0,0,18.79-2.809Z" class="color936b60 svgShape"></path></svg></g></svg>