<svg xmlns="http://www.w3.org/2000/svg" xmlns:xlink="http://www.w3.org/1999/xlink" viewBox="0 0 64 64" id="suit"><defs><linearGradient id="a" x1="4.95" x2="59.05" y1="34.5" y2="34.5" gradientUnits="userSpaceOnUse"><stop offset="0" stop-color="#474f72"></stop><stop offset="1" stop-color="#878c9f"></stop></linearGradient><linearGradient id="c" x1="16" x2="48" y1="34.5" y2="34.5" gradientUnits="userSpaceOnUse"><stop offset="0" stop-color="#d4d8e1"></stop><stop offset="1" stop-color="#f3f4f5"></stop></linearGradient><linearGradient id="d" x1="30" x2="34" y1="24" y2="24" xlink:href="#a"></linearGradient><linearGradient id="e" x1="30" x2="34" y1="34" y2="34" xlink:href="#a"></linearGradient><linearGradient id="b" x1="32" x2="44" y1="13" y2="13" gradientUnits="userSpaceOnUse"><stop offset="0" stop-color="#da5466"></stop><stop offset="1" stop-color="#f4929c"></stop></linearGradient><linearGradient id="f" x1="20" x2="32" xlink:href="#b"></linearGradient><linearGradient id="g" x1="30" x2="34" xlink:href="#b"></linearGradient></defs><path fill="url(#a)" d="M57.08,12.57,48,5H16L6.92,12.57A4,4,0,0,0,6.28,18L10,23,5.52,30.46A4,4,0,0,0,6,35.2L32,64,58,35.2a4,4,0,0,0,.47-4.74L54,23l3.72-5A4,4,0,0,0,57.08,12.57Z"></path><path fill="url(#c)" d="M16,5c0,4.23-.33,1.84,16,59C48.31,6.93,48,9.21,48,5Z"></path><ellipse cx="32" cy="5" fill="#c7cdd8" rx="16" ry="5"></ellipse><circle cx="32" cy="24" r="2" fill="url(#d)"></circle><circle cx="32" cy="34" r="2" fill="url(#e)"></circle><path fill="url(#b)" d="M41.56,17.82A.94.94,0,0,1,41,18a15,15,0,0,1-9-3V11a15,15,0,0,1,9-3,.89.89,0,0,1,.56.18A6,6,0,0,1,41.56,17.82Z"></path><path fill="url(#f)" d="M22.44,17.82A.94.94,0,0,0,23,18a15,15,0,0,0,9-3V11a15,15,0,0,0-9-3,.89.89,0,0,0-.56.18A6,6,0,0,0,22.44,17.82Z"></path><rect width="4" height="8" x="30" y="9" fill="url(#g)" rx="1"></rect><path fill="#cf4055" d="M27 14h3V12H27A1 1 0 0027 14zM37 14H34V12h3A1 1 0 0137 14z"></path></svg>