<svg xmlns="http://www.w3.org/2000/svg" viewBox="0 0 64 64" id="laundry-basket"><rect width="56" height="6" x="4" y="20" fill="#072e41" rx="1" ry="1"></rect><path fill="#115468" d="m6 26 2.678 30.352A4 4 0 0 0 12.663 60h38.674a4 4 0 0 0 3.985-3.648L58 26H6Zm13.28 27a1 1 0 0 1-1 1h-2.874a1 1 0 0 1-.996-.913l-.615-7A1 1 0 0 1 14.792 45h3.488a1 1 0 0 1 1 1v7Zm0-13a1 1 0 0 1-1 1h-4.015a1 1 0 0 1-.996-.911l-.622-7A1 1 0 0 1 13.643 32h4.637a1 1 0 0 1 1 1v7ZM30 53a1 1 0 0 1-1 1h-4.72a1 1 0 0 1-1-1v-7a1 1 0 0 1 1-1H29a1 1 0 0 1 1 1v7Zm0-13a1 1 0 0 1-1 1h-4.72a1 1 0 0 1-1-1v-7a1 1 0 0 1 1-1H29a1 1 0 0 1 1 1v7Zm10.72 13a1 1 0 0 1-1 1H35a1 1 0 0 1-1-1v-7a1 1 0 0 1 1-1h4.72a1 1 0 0 1 1 1v7Zm0-13a1 1 0 0 1-1 1H35a1 1 0 0 1-1-1v-7a1 1 0 0 1 1-1h4.72a1 1 0 0 1 1 1v7Zm8.87 13.087a1 1 0 0 1-.996.913H45.72a1 1 0 0 1-1-1v-7a1 1 0 0 1 1-1h3.488a1 1 0 0 1 .996 1.087l-.614 7Zm1.141-12.999a1 1 0 0 1-.996.912H45.72a1 1 0 0 1-1-1v-7a1 1 0 0 1 1-1h4.637a1 1 0 0 1 .996 1.089l-.622 7Z"></path><rect width="44" height="8" x="12" y="12" fill="#e2eff7" rx="4" ry="4"></rect><rect width="44" height="8" x="8" y="4" fill="#bfd9ea" rx="4" ry="4"></rect><rect width="22" height="23" x="30" y="18" fill="#bfd9ea" rx="2" ry="2"></rect><path fill="#e2eff7" d="M30 31h22v4H30z"></path></svg>