<svg xmlns="http://www.w3.org/2000/svg" enable-background="new 0 0 64 64" viewBox="0 0 64 64" id="washing-machine"><path fill="#fff" d="M27,52c7.73,0,14-6.27,14-14c0-7.74-6.27-14-14-14c-7.74,0-14,6.26-14,14C13,45.73,19.26,52,27,52z M27,21
			c9.39,0,17,7.61,17,17s-7.61,17-17,17s-17-7.61-17-17S17.61,21,27,21z"></path><circle cx="27" cy="38" r="14" fill="#5d9cec"></circle><rect width="11.01" height="3" x="35.99" y="60" fill="#ccd1d9"></rect><rect width="11.01" height="3" x="6.99" y="60" fill="#ccd1d9"></rect><path fill="#e6e9ed" d="M17,6h23.34C39.49,7.47,39,9.18,39,11c0,1.05,0.16,2.05,0.46,3h-0.01H17v-0.06V6z M27.02,12c1.1,0,2-0.9,2-2
			c0-1.11-0.9-2-2-2s-2,0.89-2,2C25.02,11.1,25.92,12,27.02,12z"></path><polygon fill="#e6e9ed" points="11 6 17 6 17 13.94 17 14 5 14 5 6"></polygon><circle cx="27.02" cy="10" r="2.5" fill="#ccd1d9"></circle><circle cx="27.02" cy="9" r="2.5" fill="#fff"></circle><path fill="#e6e9ed" d="M48.99,21v39H47H35.99H18H6.99H5V14h12h22.45h0.01C40.73,18.05,44.51,21,48.99,21z M44,38
			c0-9.39-7.61-17-17-17s-17,7.61-17,17s7.61,17,17,17S44,47.39,44,38z"></path><path fill="#4a89dc" d="M27,50c-6.62,0-12-5.38-12-12c0-6.62,5.38-12,12-12c0.55,0,1,0.45,1,1s-0.45,1-1,1c-5.51,0-10,4.49-10,10
			c0,5.51,4.49,10,10,10s10-4.49,10-10c0-0.55,0.45-1,1-1s1,0.45,1,1C39,44.61,33.61,50,27,50z"></path><path fill="#4a89dc" d="M27,47c-0.55,0-1-0.45-1-1s0.45-1,1-1c3.86,0,7-3.14,7-7s-3.14-7-7-7s-7,3.14-7,7c0,0.55-0.45,1-1,1
			s-1-0.45-1-1c0-4.96,4.04-9,9-9s9,4.04,9,9S31.96,47,27,47z"></path><path fill="#4a89dc" d="M27,44c-3.31,0-6-2.69-6-6s2.69-6,6-6c0.55,0,1,0.45,1,1c0,0.55-0.45,1-1,1c-2.21,0-4,1.79-4,4s1.79,4,4,4
			s4-1.79,4-4c0-0.55,0.45-1,1-1s1,0.45,1,1C33,41.3,30.3,44,27,44z"></path><path fill="#4a89dc" d="M27,41c-0.55,0-1-0.45-1-1s0.45-1,1-1c0.55,0,1-0.45,1-1s-0.45-1-1-1s-1,0.45-1,1c0,0.55-0.45,1-1,1
			s-1-0.45-1-1c0-1.65,1.35-3,3-3s3,1.35,3,3S28.65,41,27,41z"></path><path fill="#ccd1d9" d="M41.46,13H5v2h36.45c0.55,0,1-0.45,1-1S42.01,13,41.46,13z"></path><path fill="#ccd1d9" d="M16,6v7.94c0,0.55,0.45,1,1,1s1-0.45,1-1V6H16z"></path><path fill="#fff" d="M10,6v1c0,0.55,0.45,1,1,1s1-0.45,1-1V6H10z"></path><path fill="#a0d468" d="M49,1c5.52,0,10,4.48,10,10s-4.48,10-10,10h-0.01c-4.48,0-8.26-2.95-9.53-7c-0.3-0.95-0.46-1.95-0.46-3
			c0-1.82,0.49-3.53,1.34-5C42.07,3.01,45.3,1,49,1z"></path><path fill="#fff" d="M47,15c-0.26,0-0.51-0.1-0.71-0.29l-2-2c-0.39-0.39-0.39-1.02,0-1.41s1.02-0.39,1.41,0l2,2
			c0.39,0.39,0.39,1.02,0,1.41C47.51,14.9,47.25,15,47,15z"></path><path fill="#fff" d="M47,15c-0.26,0-0.51-0.1-0.71-0.29c-0.39-0.39-0.39-1.02,0-1.41l6-6c0.39-0.39,1.02-0.39,1.41,0
			s0.39,1.02,0,1.41l-6,6C47.51,14.9,47.25,15,47,15z"></path></svg>