<svg xmlns="http://www.w3.org/2000/svg" viewBox="0 0 48 48" id="laundry"><g data-name="Laundry a shirt"><path d="M18.46 24.11a3.17 3.17 0 0 0 3.1 0 5.17 5.17 0 0 1 4.78-.05 7 7 0 0 0-12.68 0A5.19 5.19 0 0 1 18.46 24.11zM13 27a7 7 0 0 0 14 0c0-1 .18-.27-1.45-1.11-3.05-1.49-3.95 2-8 0a3.21 3.21 0 0 0-3.11 0C12.89 26.69 13 26 13 27z"></path><path d="M30.24,31a11,11,0,1,0-7,6.51,4.63,4.63,0,0,1-.22-2,9,9,0,1,1,5-4.47Z"></path><path d="M24.26 39.28A13 13 0 1 1 32.37 31H38V11H2V41a3 3 0 0 0 3 3H23a5 5 0 0 1 2-4A4.77 4.77 0 0 1 24.26 39.28zM28 43H45a1 1 0 0 0 0-2c-18.81 0-17 0-17.55 0a3 3 0 0 0-1.66.94A2.92 2.92 0 0 0 25 44a3 3 0 0 0 3 3H45a1 1 0 0 0 0-2H28A1 1 0 0 1 28 43zM38 4a3 3 0 0 0-3-3H5A3 3 0 0 0 2 4V9H38zM7 5.19a1 1 0 1 1-1.69-.9A1 1 0 0 1 7 5.19zm3.73.52A1 1 0 1 1 9.29 4.29 1 1 0 0 1 10.71 5.71zM13 5a1 1 0 0 1 2 0A1 1 0 0 1 13 5zM34 6H24a1 1 0 0 1 0-2H34A1 1 0 0 1 34 6z"></path><path d="M45,37H28a1,1,0,0,1,0-2H45a1,1,0,0,0,0-2H28a3,3,0,0,0-2,5.2c1.11,1.11.83.8,19,.8A1,1,0,0,0,45,37Z"></path></g></svg>