<svg id="SvgjsSvg1625" width="288" height="288" xmlns="http://www.w3.org/2000/svg" version="1.1" xmlns:xlink="http://www.w3.org/1999/xlink" xmlns:svgjs="http://svgjs.com/svgjs"><defs id="SvgjsDefs1626"></defs><g id="SvgjsG1627"><svg xmlns="http://www.w3.org/2000/svg" viewBox="0 0 32 32" width="288" height="288"><rect width="29" height="25.13" x="1.5" y="5.37" fill="#4e819b" rx="3.01" ry="3.01" class="color4e689b svgShape"></rect><path fill="#333333" d="M27.49 31h-23A3.51 3.51 0 0 1 1 27.49V8.37a3.51 3.51 0 0 1 3.51-3.5h23A3.51 3.51 0 0 1 31 8.37v19.12A3.51 3.51 0 0 1 27.49 31ZM4.51 5.87A2.5 2.5 0 0 0 2 8.37v19.12A2.51 2.51 0 0 0 4.51 30h23A2.51 2.51 0 0 0 30 27.49V8.37a2.5 2.5 0 0 0-2.51-2.5Z" class="color333 svgShape"></path><path fill="#235b77" d="M22.77 3.88v2.45a1 1 0 0 1-1 1H10.2a1 1 0 0 1-1-1V3.88a2.38 2.38 0 0 1 2.41-2.38h8.78a2.38 2.38 0 0 1 2.38 2.38Z" class="color234177 svgShape"></path><path fill="#333333" d="M21.8 7.8H10.2a1.47 1.47 0 0 1-1.47-1.47V3.88A2.88 2.88 0 0 1 11.61 1h8.78a2.88 2.88 0 0 1 2.88 2.88v2.45A1.47 1.47 0 0 1 21.8 7.8ZM11.61 2a1.88 1.88 0 0 0-1.88 1.88v2.45a.47.47 0 0 0 .47.47h11.6a.47.47 0 0 0 .47-.47V3.88A1.88 1.88 0 0 0 20.39 2Z" class="color333 svgShape"></path><path fill="#8fd3f5" d="M22.73 6.61 16.93 26a1 1 0 0 1-1.86 0L9.27 6.61a1 1 0 0 1 .16-.86 1 1 0 0 1 .77-.38h11.6a1 1 0 0 1 .77.38 1 1 0 0 1 .16.86Z" class="color8fc8f5 svgShape"></path><path fill="#333333" d="M16 27.17a1.48 1.48 0 0 1-1.41-1L8.79 6.76A1.51 1.51 0 0 1 9 5.46a1.47 1.47 0 0 1 1.18-.59H21.8a1.46 1.46 0 0 1 1.2.58 1.49 1.49 0 0 1 .24 1.3l-5.8 19.37A1.48 1.48 0 0 1 16 27.17Zm-5.8-21.3a.49.49 0 0 0-.38.19.5.5 0 0 0-.07.41l5.8 19.37a.49.49 0 0 0 .9 0l5.8-19.37a.49.49 0 0 0-.08-.42.47.47 0 0 0-.37-.18Zm12.53.74Z" class="color333 svgShape"></path><path fill="#0e82bc" d="M19.05 18.9 16.93 26a1 1 0 0 1-1.86 0L13 18.9a1 1 0 0 1 0-.54l2.12-7.57a1 1 0 0 1 1.86 0l2.12 7.57a1 1 0 0 1-.05.54Z" class="colorbc0e5c svgShape"></path><path fill="#333333" d="M16 27.17a1.48 1.48 0 0 1-1.41-1L12.48 19a1.4 1.4 0 0 1 0-.81l2.13-7.58a1.46 1.46 0 0 1 2.82 0l2.13 7.56a1.46 1.46 0 0 1 0 .83l-2.11 7.08A1.48 1.48 0 0 1 16 27.17Zm0-16.59a.47.47 0 0 0-.45.34l-2.12 7.57a.46.46 0 0 0 0 .26l2.12 7.09a.49.49 0 0 0 .9 0l2.12-7.08a.46.46 0 0 0 0-.26l-2.12-7.56a.47.47 0 0 0-.45-.36Z" class="color333 svgShape"></path><path fill="#376881" d="m26.64 10.58-2 5.73a1 1 0 0 1-.92.66h-.6l1.2 1.82a1 1 0 0 1 0 1.11l-7.54 10.2a.76.76 0 0 1-.29.24l-.08.05h-.09a.92.92 0 0 1-.6 0h-.09l-.08-.05a.76.76 0 0 1-.29-.24L7.67 19.9a1 1 0 0 1 0-1.11L8.84 17h-.6a1 1 0 0 1-.92-.66l-2-5.73a1 1 0 0 1 .23-1l3.96-3.96a1 1 0 0 1 .93-.25 1 1 0 0 1 .69.65L16 22.33l4.87-16.28a1 1 0 0 1 .69-.65 1 1 0 0 1 .93.25l3.92 3.93a1 1 0 0 1 .23 1Z" class="color374c81 svgShape"></path><path fill="#333333" d="M16 31a1.69 1.69 0 0 1-.44-.07l-.13-.05-.09-.05a1.66 1.66 0 0 1-.48-.37v-.06l-7.6-10.21a1.46 1.46 0 0 1 0-1.67l.71-1.09a1.44 1.44 0 0 1-1.08-1l-2-5.73a1.47 1.47 0 0 1 .36-1.52l3.91-3.89a1.51 1.51 0 0 1 1.4-.38 1.49 1.49 0 0 1 1 1L16 20.59l4.39-14.68a1.49 1.49 0 0 1 1-1 1.52 1.52 0 0 1 1.41.38l3.92 3.94a1.44 1.44 0 0 1 .36 1.51l-2 5.73a1.44 1.44 0 0 1-1.08 1l.71 1.09a1.46 1.46 0 0 1-.05 1.68L17.19 30.4l-.06.06a1.4 1.4 0 0 1-.41.34l-.18.09h-.1A1.69 1.69 0 0 1 16 31Zm-.17-1h.05a.74.74 0 0 0 .28 0 .76.76 0 0 0 .15-.1.39.39 0 0 1 .08-.1l7.5-10.14a.45.45 0 0 0 0-.53L22.7 17.3a.49.49 0 0 1 0-.51.51.51 0 0 1 .44-.26h.6a.47.47 0 0 0 .45-.32l2-5.73a.49.49 0 0 0-.11-.48l-3.95-4a.5.5 0 0 0-.46-.12.49.49 0 0 0-.32.32l-4.87 16.28a.52.52 0 0 1-1 0L10.65 6.2a.47.47 0 0 0-.78-.2L5.94 9.93a.49.49 0 0 0-.11.49l2 5.73a.47.47 0 0 0 .45.32h.6a.51.51 0 0 1 .44.26.49.49 0 0 1 0 .51l-1.26 1.83a.43.43 0 0 0 0 .52l7.51 10.17a.13.13 0 0 1 .06.07.5.5 0 0 0 .14.1Zm10.81-19.42Z" class="color333 svgShape"></path><path fill="#129ade" d="m19.56 6.82-2.72 4.71a1 1 0 0 1-1.68 0l-2.72-4.71a1 1 0 0 1 .84-1.45h5.44a1 1 0 0 1 .84 1.45Z" class="colorde1263 svgShape"></path><path fill="#333333" d="M16 12.52a1.5 1.5 0 0 1-1.27-.73L12 7.07a1.47 1.47 0 0 1 1.27-2.2h5.44A1.47 1.47 0 0 1 20 7.07l-2.72 4.71a1.49 1.49 0 0 1-1.28.74Zm-2.72-6.65a.47.47 0 0 0-.4.23.44.44 0 0 0 0 .47l2.71 4.71a.5.5 0 0 0 .82 0l2.71-4.71a.49.49 0 0 0 0-.47.5.5 0 0 0-.41-.23Z" class="color333 svgShape"></path></svg></g></svg>